<?xml version="1.0" encoding="UTF-8"?>
<svg version="1.1" xmlns="http://www.w3.org/2000/svg" width="250" height="140">
<path d="M0 0 C82.5 0 165 0 250 0 C250 46.2 250 92.4 250 140 C167.5 140 85 140 0 140 C0 93.8 0 47.6 0 0 Z " fill="#0F1010" transform="translate(0,0)"/>
<path d="M0 0 C0.91120605 0.01047363 1.82241211 0.02094727 2.76123047 0.03173828 C3.74736328 0.03818359 4.73349609 0.04462891 5.74951172 0.05126953 C7.29832031 0.07640625 7.29832031 0.07640625 8.87841797 0.10205078 C9.91869141 0.11107422 10.95896484 0.12009766 12.03076172 0.12939453 C14.60520889 0.15301331 17.17920009 0.18594929 19.75341797 0.22705078 C19.75341797 1.54705078 19.75341797 2.86705078 19.75341797 4.22705078 C21.07341797 4.22705078 22.39341797 4.22705078 23.75341797 4.22705078 C23.75341797 5.54705078 23.75341797 6.86705078 23.75341797 8.22705078 C25.07341797 8.22705078 26.39341797 8.22705078 27.75341797 8.22705078 C27.75341797 12.84705078 27.75341797 17.46705078 27.75341797 22.22705078 C26.43341797 22.22705078 25.11341797 22.22705078 23.75341797 22.22705078 C23.75341797 23.54705078 23.75341797 24.86705078 23.75341797 26.22705078 C22.10341797 26.22705078 20.45341797 26.22705078 18.75341797 26.22705078 C18.75341797 27.87705078 18.75341797 29.52705078 18.75341797 31.22705078 C16.30066656 32.45342648 14.70283986 32.34120393 11.96435547 32.32470703 C11.02333984 32.32148437 10.08232422 32.31826172 9.11279297 32.31494141 C8.12794922 32.3065625 7.14310547 32.29818359 6.12841797 32.28955078 C4.63955078 32.2827832 4.63955078 32.2827832 3.12060547 32.27587891 C0.66481637 32.26407223 -1.79085307 32.24760478 -4.24658203 32.22705078 C-4.29596831 27.99122751 -4.33229466 23.75555613 -4.35644531 19.51953125 C-4.36651166 18.07809531 -4.38016583 16.63667983 -4.39746094 15.1953125 C-4.42168215 13.12511145 -4.43305845 11.05518002 -4.44189453 8.98486328 C-4.45236816 7.73850098 -4.4628418 6.49213867 -4.47363281 5.20800781 C-4.20213489 1.64350282 -3.68595191 0.37252068 0 0 Z " fill="#BE392A" transform="translate(159.24658203125,51.77294921875)"/>
<path d="M0 0 C1.07878418 0.01047363 2.15756836 0.02094727 3.26904297 0.03173828 C5.01894531 0.04140625 5.01894531 0.04140625 6.80419922 0.05126953 C8.02751953 0.06802734 9.25083984 0.08478516 10.51123047 0.10205078 C11.74228516 0.11107422 12.97333984 0.12009766 14.24169922 0.12939453 C17.29006862 0.1530253 20.33805429 0.18597024 23.38623047 0.22705078 C23.38623047 1.54705078 23.38623047 2.86705078 23.38623047 4.22705078 C25.03623047 4.22705078 26.68623047 4.22705078 28.38623047 4.22705078 C28.38623047 8.84705078 28.38623047 13.46705078 28.38623047 18.22705078 C26.73623047 18.55705078 25.08623047 18.88705078 23.38623047 19.22705078 C23.38623047 20.21705078 23.38623047 21.20705078 23.38623047 22.22705078 C17.77623047 22.22705078 12.16623047 22.22705078 6.38623047 22.22705078 C6.38623047 25.19705078 6.38623047 28.16705078 6.38623047 31.22705078 C3.98077409 32.42977897 2.43626094 32.3277655 -0.23876953 32.28955078 C-1.46466797 32.27601562 -1.46466797 32.27601562 -2.71533203 32.26220703 C-3.34181641 32.25060547 -3.96830078 32.23900391 -4.61376953 32.22705078 C-4.66315581 27.99122751 -4.69948216 23.75555613 -4.72363281 19.51953125 C-4.73369916 18.07809531 -4.74735333 16.63667983 -4.76464844 15.1953125 C-4.78886965 13.12511145 -4.80024595 11.05518002 -4.80908203 8.98486328 C-4.81955566 7.73850098 -4.8300293 6.49213867 -4.84082031 5.20800781 C-4.54795552 1.36297654 -3.8982185 0.33862724 0 0 Z " fill="#C34333" transform="translate(63.61376953125,51.77294921875)"/>
<path d="M0 0 C1.2463623 0.01047363 2.49272461 0.02094727 3.77685547 0.03173828 C4.77143265 0.03598312 4.77143265 0.03598312 5.78610229 0.04031372 C7.9055988 0.05151643 10.02467401 0.07662027 12.14404297 0.10205078 C13.58023479 0.11208051 15.01643322 0.12120637 16.45263672 0.12939453 C19.97490925 0.15145578 23.496935 0.18598585 27.01904297 0.22705078 C27.01904297 1.87705078 27.01904297 3.52705078 27.01904297 5.22705078 C24.67051769 6.40131342 23.28130232 6.34213251 20.66748047 6.32470703 C19.81669922 6.32148437 18.96591797 6.31826172 18.08935547 6.31494141 C17.19990234 6.3065625 16.31044922 6.29818359 15.39404297 6.28955078 C14.49685547 6.28503906 13.59966797 6.28052734 12.67529297 6.27587891 C10.45647649 6.26407669 8.23779278 6.24761234 6.01904297 6.22705078 C6.01904297 8.53705078 6.01904297 10.84705078 6.01904297 13.22705078 C11.62904297 13.22705078 17.23904297 13.22705078 23.01904297 13.22705078 C23.01904297 14.87705078 23.01904297 16.52705078 23.01904297 18.22705078 C19.95371133 19.7597166 16.75150025 19.32981549 13.39404297 19.28955078 C12.68763672 19.28503906 11.98123047 19.28052734 11.25341797 19.27587891 C9.50859022 19.26408953 7.76380597 19.24615403 6.01904297 19.22705078 C6.01904297 21.53705078 6.01904297 23.84705078 6.01904297 26.22705078 C12.94904297 26.22705078 19.87904297 26.22705078 27.01904297 26.22705078 C27.01904297 27.87705078 27.01904297 29.52705078 27.01904297 31.22705078 C24.09706607 32.68803923 21.52010822 32.33839979 18.26123047 32.32470703 C17.26665329 32.32258461 17.26665329 32.32258461 16.25198364 32.32041931 C14.13262434 32.31481832 12.01337038 32.30226579 9.89404297 32.28955078 C8.45784658 32.2845359 7.02164853 32.27997297 5.58544922 32.27587891 C2.06327952 32.26484861 -1.45882848 32.24758337 -4.98095703 32.22705078 C-5.03034331 27.99122751 -5.06666966 23.75555613 -5.09082031 19.51953125 C-5.10088666 18.07809531 -5.11454083 16.63667983 -5.13183594 15.1953125 C-5.15605715 13.12511145 -5.16743345 11.05518002 -5.17626953 8.98486328 C-5.18674316 7.73850098 -5.1972168 6.49213867 -5.20800781 5.20800781 C-4.89490816 1.09731242 -4.1106954 0.31309965 0 0 Z " fill="#D36536" transform="translate(193.98095703125,51.77294921875)"/>
<path d="M0 0 C2.97 0 5.94 0 9 0 C9 8.58 9 17.16 9 26 C13.29 26 17.58 26 22 26 C22 17.75 22 9.5 22 1 C24.64 1 27.28 1 30 1 C30 9.25 30 17.5 30 26 C28.68 26 27.36 26 26 26 C26 27.65 26 29.3 26 31 C23.49502996 32.25248502 21.79146726 32.11374406 18.9921875 32.09765625 C18.00605469 32.09443359 17.01992188 32.09121094 16.00390625 32.08789062 C14.97136719 32.07951172 13.93882813 32.07113281 12.875 32.0625 C11.31458984 32.05573242 11.31458984 32.05573242 9.72265625 32.04882812 C7.14838038 32.03701952 4.57421854 32.02055075 2 32 C2 30.68 2 29.36 2 28 C0.68 28 -0.64 28 -2 28 C-2.05783842 23.70838953 -2.0935412 19.41687855 -2.125 15.125 C-2.14175781 13.90167969 -2.15851562 12.67835937 -2.17578125 11.41796875 C-2.18222656 10.25136719 -2.18867188 9.08476563 -2.1953125 7.8828125 C-2.20578613 6.80402832 -2.21625977 5.72524414 -2.22705078 4.61376953 C-2 2 -2 2 0 0 Z " fill="#EEE212" transform="translate(27,52)"/>
<path d="M0 0 C5.94 0 11.88 0 18 0 C18 1.65 18 3.3 18 5 C19.32 5 20.64 5 22 5 C22 6.32 22 7.64 22 9 C21.34 9 20.68 9 20 9 C20 9.66 20 10.32 20 11 C17.03 11 14.06 11 11 11 C11 9.35 11 7.7 11 6 C9.02 6 7.04 6 5 6 C5 8.31 5 10.62 5 13 C10.61 13 16.22 13 22 13 C22 14.32 22 15.64 22 17 C23.65 17 25.3 17 27 17 C27 19.97 27 22.94 27 26 C25.35 26 23.7 26 22 26 C22 27.32 22 28.64 22 30 C15.07 30 8.14 30 1 30 C1 28.68 1 27.36 1 26 C-0.32 26 -1.64 26 -3 26 C-3 24.68 -3 23.36 -3 22 C-0.36 22 2.28 22 5 22 C5 23.32 5 24.64 5 26 C8.63 26 12.26 26 16 26 C16 23.69 16 21.38 16 19 C10.39 19 4.78 19 -1 19 C-1 17.68 -1 16.36 -1 15 C-2.65 15 -4.3 15 -6 15 C-6 12.03 -6 9.06 -6 6 C-5.34 6 -4.68 6 -4 6 C-4 5.34 -4 4.68 -4 4 C-3.01 4 -2.02 4 -1 4 C-0.67 2.68 -0.34 1.36 0 0 Z " fill="#EDE113" transform="translate(99,52)"/>
<path d="M0 0 C1.084021 0.00523682 2.16804199 0.01047363 3.28491211 0.01586914 C5.03964844 0.02070312 5.03964844 0.02070312 6.82983398 0.02563477 C8.67738281 0.03820313 8.67738281 0.03820313 10.56225586 0.05102539 C12.41560547 0.05779297 12.41560547 0.05779297 14.30639648 0.06469727 C17.37089703 0.07652931 20.43530307 0.09301366 23.49975586 0.11352539 C23.49975586 1.76352539 23.49975586 3.41352539 23.49975586 5.11352539 C22.83975586 5.11352539 22.17975586 5.11352539 21.49975586 5.11352539 C21.49975586 5.77352539 21.49975586 6.43352539 21.49975586 7.11352539 C19.51975586 7.11352539 17.53975586 7.11352539 15.49975586 7.11352539 C15.49975586 13.05352539 15.49975586 18.99352539 15.49975586 25.11352539 C18.13975586 25.11352539 20.77975586 25.11352539 23.49975586 25.11352539 C23.49975586 26.76352539 23.49975586 28.41352539 23.49975586 30.11352539 C14.91975586 30.11352539 6.33975586 30.11352539 -2.50024414 30.11352539 C-2.50024414 28.79352539 -2.50024414 27.47352539 -2.50024414 26.11352539 C-0.52024414 26.11352539 1.45975586 26.11352539 3.49975586 26.11352539 C3.49975586 19.51352539 3.49975586 12.91352539 3.49975586 6.11352539 C0.85975586 6.11352539 -1.78024414 6.11352539 -4.50024414 6.11352539 C-3.43090572 0.15578275 -3.43090572 0.15578275 0 0 Z " fill="#EC592A" transform="translate(129.500244140625,51.886474609375)"/>
<path d="M0 0 C1.32 0 2.64 0 4 0 C4 0.66 4 1.32 4 2 C5.32 2 6.64 2 8 2 C8 8.93 8 15.86 8 23 C10.97 23 13.94 23 17 23 C17 21.35 17 19.7 17 18 C18.32 18 19.64 18 21 18 C21 14.04 21 10.08 21 6 C21.33 6.66 21.66 7.32 22 8 C24.64 8 27.28 8 30 8 C30 11.63 30 15.26 30 19 C28.68 19 27.36 19 26 19 C26 20.32 26 21.64 26 23 C24.35 23 22.7 23 21 23 C21 24.32 21 25.64 21 27 C14.07 27 7.14 27 0 27 C0 18.09 0 9.18 0 0 Z " fill="#ECE016" transform="translate(157,55)"/>
<path d="M0 0 C81.51 0 163.02 0 247 0 C247 45.21 247 90.42 247 137 C246.67 137 246.34 137 246 137 C245.99503478 135.97459579 245.99503478 135.97459579 245.98996925 134.92847633 C245.90882949 118.31240227 245.81676697 101.69642856 245.71247292 85.08048439 C245.66230233 77.04521218 245.61586004 69.0099504 245.578125 60.97460938 C245.54523451 53.97287026 245.50541981 46.97121105 245.45720994 39.96956003 C245.4319155 36.26054933 245.41014307 32.55159184 245.39665604 28.84251785 C245.3814885 24.70690634 245.35086561 20.57155052 245.31884766 16.43603516 C245.31668747 15.19957748 245.31452728 13.96311981 245.31230164 12.68919373 C245.30113815 11.56736191 245.28997467 10.44553009 245.2784729 9.28970337 C245.27294214 8.31075922 245.26741138 7.33181507 245.26171303 6.32320595 C245.22275352 3.8070827 245.22275352 3.8070827 243 2 C241.12154039 1.70052577 241.12154039 1.70052577 238.94326591 1.75390434 C238.0893353 1.74992225 237.23540468 1.74594015 236.35559738 1.74183738 C235.41203168 1.74766307 234.46846597 1.75348875 233.49630737 1.75949097 C232.49821175 1.75778212 231.50011612 1.75607327 230.47177517 1.75431263 C227.10594911 1.75100163 223.74031961 1.76204789 220.37451172 1.77294922 C217.97030644 1.77351298 215.56610083 1.77319745 213.16189575 1.77206421 C207.97482251 1.77160783 202.78779424 1.77730401 197.60073471 1.78853989 C190.10106589 1.80477463 182.60142141 1.81000081 175.10173692 1.81251587 C162.93483558 1.81689616 150.76796101 1.83021431 138.60107422 1.84912109 C126.78011204 1.86747126 114.95915713 1.88163198 103.13818359 1.89013672 C102.40988212 1.89066217 101.68158065 1.89118761 100.93120943 1.89172898 C97.27763736 1.894339 93.62406524 1.89686643 89.97049308 1.89935279 C59.64697621 1.92009569 29.32349182 1.95547867 -1 2 C-0.67 1.34 -0.34 0.68 0 0 Z " fill="#202020" transform="translate(3,0)"/>
<path d="M0 0 C4.29 0 8.58 0 13 0 C13 0.99 13 1.98 13 3 C11.35 3 9.7 3 8 3 C8 7.29 8 11.58 8 16 C12.29 16 16.58 16 21 16 C21 14.02 21 12.04 21 10 C23.64 10 26.28 10 29 10 C29 11.98 29 13.96 29 16 C27.68 16 26.36 16 25 16 C25 17.65 25 19.3 25 21 C19.39 21 13.78 21 8 21 C8 23.64 8 26.28 8 29 C5.36 29 2.72 29 0 29 C0 19.43 0 9.86 0 0 Z " fill="#FCBC1A" transform="translate(62,53)"/>
<path d="M0 0 C2.27864583 0.06510417 4.55729167 0.13020833 6.8359375 0.1953125 C6.8359375 5.8053125 6.8359375 11.4153125 6.8359375 17.1953125 C5.1859375 17.1953125 3.5359375 17.1953125 1.8359375 17.1953125 C1.8359375 17.8553125 1.8359375 18.5153125 1.8359375 19.1953125 C0.8459375 19.1953125 -0.1440625 19.1953125 -1.1640625 19.1953125 C-1.1640625 21.5053125 -1.1640625 23.8153125 -1.1640625 26.1953125 C0.1559375 26.1953125 1.4759375 26.1953125 2.8359375 26.1953125 C2.8359375 27.5153125 2.8359375 28.8353125 2.8359375 30.1953125 C9.7659375 30.1953125 16.6959375 30.1953125 23.8359375 30.1953125 C21.8359375 32.1953125 21.8359375 32.1953125 19.58935547 32.42236328 C18.67814941 32.41188965 17.76694336 32.40141602 16.828125 32.390625 C15.84199219 32.38417969 14.85585938 32.37773438 13.83984375 32.37109375 C12.80730469 32.35433594 11.77476563 32.33757812 10.7109375 32.3203125 C9.67066406 32.31128906 8.63039063 32.30226562 7.55859375 32.29296875 C4.98414658 32.26934997 2.41015538 32.23641399 -0.1640625 32.1953125 C-0.1640625 30.8753125 -0.1640625 29.5553125 -0.1640625 28.1953125 C-1.4840625 28.1953125 -2.8040625 28.1953125 -4.1640625 28.1953125 C-4.22190092 23.90370203 -4.2576037 19.61219105 -4.2890625 15.3203125 C-4.30582031 14.09699219 -4.32257812 12.87367187 -4.33984375 11.61328125 C-4.34628906 10.44667969 -4.35273438 9.28007813 -4.359375 8.078125 C-4.36984863 6.99934082 -4.38032227 5.92055664 -4.39111328 4.80908203 C-4.10370152 1.50044732 -3.40643797 0.30744025 0 0 Z " fill="#D5392C" transform="translate(29.1640625,51.8046875)"/>
<path d="M0 0 C5.94 0 11.88 0 18 0 C18 1.65 18 3.3 18 5 C19.32 5 20.64 5 22 5 C22 6.32 22 7.64 22 9 C21.34 9 20.68 9 20 9 C20 9.66 20 10.32 20 11 C17.03 11 14.06 11 11 11 C11 9.35 11 7.7 11 6 C9.02 6 7.04 6 5 6 C5 5.34 5 4.68 5 4 C8.96 4 12.92 4 17 4 C17 3.01 17 2.02 17 1 C11.72 1 6.44 1 1 1 C1 2.32 1 3.64 1 5 C-0.32 5 -1.64 5 -3 5 C-3 7.64 -3 10.28 -3 13 C-1.68 13 -0.36 13 1 13 C1 14.32 1 15.64 1 17 C6.61 17 12.22 17 18 17 C18 19.97 18 22.94 18 26 C17.34 26 16.68 26 16 26 C16 23.69 16 21.38 16 19 C10.39 19 4.78 19 -1 19 C-1 17.68 -1 16.36 -1 15 C-2.65 15 -4.3 15 -6 15 C-6 12.03 -6 9.06 -6 6 C-5.34 6 -4.68 6 -4 6 C-4 5.34 -4 4.68 -4 4 C-3.01 4 -2.02 4 -1 4 C-0.67 2.68 -0.34 1.36 0 0 Z " fill="#8F2F4A" transform="translate(99,52)"/>
<path d="M0 0 C5.28 0 10.56 0 16 0 C16 0.99 16 1.98 16 3 C12.04 3 8.08 3 4 3 C4 5.97 4 8.94 4 12 C9.61 12 15.22 12 21 12 C21 12.66 21 13.32 21 14 C19.68 14 18.36 14 17 14 C17 14.66 17 15.32 17 16 C11.39 16 5.78 16 0 16 C0 14.68 0 13.36 0 12 C-1.32 12 -2.64 12 -4 12 C-4 9.36 -4 6.72 -4 4 C-2.68 4 -1.36 4 0 4 C0 2.68 0 1.36 0 0 Z " fill="#F05B28" transform="translate(100,53)"/>
<path d="M0 0 C2.64 0 5.28 0 8 0 C8 2.31 8 4.62 8 7 C15.26 7 22.52 7 30 7 C30 8.32 30 9.64 30 11 C20.1 11 10.2 11 0 11 C0 7.37 0 3.74 0 0 Z " fill="#EEE113" transform="translate(191,71)"/>
<path d="M0 0 C1.32 0 2.64 0 4 0 C4 0.99 4 1.98 4 3 C5.32 3 6.64 3 8 3 C8 4.98 8 6.96 8 9 C10.97 9 13.94 9 17 9 C17 10.32 17 11.64 17 13 C8.42 13 -0.16 13 -9 13 C-9 11.68 -9 10.36 -9 9 C-6.03 9 -3.06 9 0 9 C0 6.03 0 3.06 0 0 Z " fill="#EDE014" transform="translate(136,69)"/>
<path d="M0 0 C9.9 0 19.8 0 30 0 C30 1.65 30 3.3 30 5 C27.65147472 6.17426264 26.26225935 6.11508173 23.6484375 6.09765625 C22.79765625 6.09443359 21.946875 6.09121094 21.0703125 6.08789062 C20.18085938 6.07951172 19.29140625 6.07113281 18.375 6.0625 C17.4778125 6.05798828 16.580625 6.05347656 15.65625 6.04882812 C13.43743352 6.03702591 11.21874982 6.02056155 9 6 C9 8.31 9 10.62 9 13 C8.67 13 8.34 13 8 13 C8 10.36 8 7.72 8 5 C6.68 5 5.36 5 4 5 C4 3.68 4 2.36 4 1 C2.68 0.67 1.36 0.34 0 0 Z " fill="#B53338" transform="translate(191,52)"/>
<path d="M0 0 C1.98 0 3.96 0 6 0 C6 1.65 6 3.3 6 5 C7.32 5 8.64 5 10 5 C10.61839323 14.00105708 10.61839323 14.00105708 8.375 17.625 C6 19 6 19 0 19 C0 12.73 0 6.46 0 0 Z " fill="#150E12" transform="translate(166,58)"/>
<path d="M0 0 C0.33 0 0.66 0 1 0 C1.24900646 1.93505023 1.47356242 3.87325934 1.6875 5.8125 C1.81511719 6.89144531 1.94273438 7.97039062 2.07421875 9.08203125 C2 12 2 12 0.64453125 13.88671875 C-1 15 -1 15 -3 15 C-3.66 16.32 -4.32 17.64 -5 19 C-9.62 19 -14.24 19 -19 19 C-19 20.98 -19 22.96 -19 25 C-21 27 -21 27 -23.1640625 27.1953125 C-23.97617188 27.17210938 -24.78828125 27.14890625 -25.625 27.125 C-26.44226563 27.10695313 -27.25953125 27.08890625 -28.1015625 27.0703125 C-28.72804687 27.04710938 -29.35453125 27.02390625 -30 27 C-30 26.34 -30 25.68 -30 25 C-26.04 24.505 -26.04 24.505 -22 24 C-22 21.03 -22 18.06 -22 15 C-16.39 15 -10.78 15 -5 15 C-5 14.01 -5 13.02 -5 12 C-3.35 11.67 -1.7 11.34 0 11 C0 7.37 0 3.74 0 0 Z " fill="#1E071E" transform="translate(92,59)"/>
<path d="M0 0 C4.29 0 8.58 0 13 0 C13 0.99 13 1.98 13 3 C11.35 3 9.7 3 8 3 C8 7.29 8 11.58 8 16 C5.36 16 2.72 16 0 16 C0 10.72 0 5.44 0 0 Z " fill="#F05728" transform="translate(62,53)"/>
<path d="M0 0 C2.64 0 5.28 0 8 0 C8 6.27 8 12.54 8 19 C6.68 19 5.36 19 4 19 C4 18.01 4 17.02 4 16 C2.68 16 1.36 16 0 16 C0 10.72 0 5.44 0 0 Z " fill="#F05927" transform="translate(49,53)"/>
<path d="M0 0 C0.33 0 0.66 0 1 0 C1 9.57 1 19.14 1 29 C10.9 29 20.8 29 31 29 C29 31 29 31 26.01904297 31.22705078 C24.77268066 31.21657715 23.52631836 31.20610352 22.2421875 31.1953125 C21.57913605 31.1924826 20.91608459 31.18965271 20.23294067 31.18673706 C18.11344417 31.17553435 15.99436896 31.15043051 13.875 31.125 C12.43880818 31.11497028 11.00260975 31.10584441 9.56640625 31.09765625 C6.04413372 31.075595 2.52210797 31.04106494 -1 31 C-1.02465622 26.74585377 -1.04283899 22.49174502 -1.05493164 18.23754883 C-1.05997101 16.78929927 -1.06680253 15.34105483 -1.07543945 13.89282227 C-1.08752247 11.81525412 -1.09323211 9.73775303 -1.09765625 7.66015625 C-1.10289307 6.40855713 -1.10812988 5.15695801 -1.11352539 3.86743164 C-1 1 -1 1 0 0 Z " fill="#842A50" transform="translate(190,53)"/>
<path d="M0 0 C3.3 0 6.6 0 10 0 C10 8.58 10 17.16 10 26 C9.67 26 9.34 26 9 26 C9 17.75 9 9.5 9 1 C6.36 1 3.72 1 1 1 C1 9.25 1 17.5 1 26 C-3.29 26 -7.58 26 -12 26 C-12 25.67 -12 25.34 -12 25 C-8.7 25 -5.4 25 -2 25 C-2 17.41 -2 9.82 -2 2 C-1.34 2 -0.68 2 0 2 C0 1.34 0 0.68 0 0 Z " fill="#75333C" transform="translate(48,52)"/>
<path d="M0 0 C1.32 0 2.64 0 4 0 C4 0.66 4 1.32 4 2 C5.32 2 6.64 2 8 2 C8 5.96 8 9.92 8 14 C6.68 14 5.36 14 4 14 C4 14.99 4 15.98 4 17 C2.68 17 1.36 17 0 17 C0 11.39 0 5.78 0 0 Z " fill="#F38634" transform="translate(157,55)"/>
<path d="M0 0 C0.33 0 0.66 0 1 0 C1 8.25 1 16.5 1 25 C2.65 25 4.3 25 6 25 C6 26.32 6 27.64 6 29 C12.93 29 19.86 29 27 29 C25 31 25 31 22.75341797 31.22705078 C21.84221191 31.21657715 20.93100586 31.20610352 19.9921875 31.1953125 C19.00605469 31.18886719 18.01992188 31.18242188 17.00390625 31.17578125 C15.45509766 31.15064453 15.45509766 31.15064453 13.875 31.125 C12.83472656 31.11597656 11.79445313 31.10695313 10.72265625 31.09765625 C8.14820908 31.07403747 5.57421788 31.04110149 3 31 C3 29.68 3 28.36 3 27 C1.68 27 0.36 27 -1 27 C-1.02886537 22.68751391 -1.04675255 18.37505238 -1.0625 14.0625 C-1.07087891 12.83080078 -1.07925781 11.59910156 -1.08789062 10.33007812 C-1.09111328 9.16025391 -1.09433594 7.99042969 -1.09765625 6.78515625 C-1.10289307 5.70113525 -1.10812988 4.61711426 -1.11352539 3.50024414 C-1 1 -1 1 0 0 Z " fill="#86254C" transform="translate(26,53)"/>
<path d="M0 0 C3.3 0 6.6 0 10 0 C10 3.63 10 7.26 10 11 C6.7 11 3.4 11 0 11 C0 7.37 0 3.74 0 0 Z " fill="#0E0F10" transform="translate(70,58)"/>
<path d="M0 0 C0.33 0 0.66 0 1 0 C1 9.57 1 19.14 1 29 C7.93 29 14.86 29 22 29 C20 31 20 31 17.84521484 31.22705078 C16.97590332 31.21657715 16.1065918 31.20610352 15.2109375 31.1953125 C14.26992187 31.18886719 13.32890625 31.18242188 12.359375 31.17578125 C11.37453125 31.15902344 10.3896875 31.14226562 9.375 31.125 C8.38242188 31.11597656 7.38984375 31.10695313 6.3671875 31.09765625 C3.91121866 31.07404116 1.45572832 31.04110799 -1 31 C-1.02465622 26.74585377 -1.04283899 22.49174502 -1.05493164 18.23754883 C-1.05997101 16.78929927 -1.06680253 15.34105483 -1.07543945 13.89282227 C-1.08752247 11.81525412 -1.09323211 9.73775303 -1.09765625 7.66015625 C-1.10289307 6.40855713 -1.10812988 5.15695801 -1.11352539 3.86743164 C-1 1 -1 1 0 0 Z " fill="#852D51" transform="translate(156,53)"/>
<path d="M0 0 C5.61 0 11.22 0 17 0 C17 1.65 17 3.3 17 5 C18.32 5 19.64 5 21 5 C21 6.32 21 7.64 21 9 C20.34 9 19.68 9 19 9 C19 9.66 19 10.32 19 11 C16.03 11 13.06 11 10 11 C10 9.35 10 7.7 10 6 C8.02 6 6.04 6 4 6 C4 5.34 4 4.68 4 4 C7.96 4 11.92 4 16 4 C16 3.01 16 2.02 16 1 C10.72 1 5.44 1 0 1 C0 0.67 0 0.34 0 0 Z " fill="#C8392F" transform="translate(100,52)"/>
<path d="M0 0 C0.33 0 0.66 0 1 0 C1.14541967 4.22880411 1.23411527 8.45696413 1.3125 12.6875 C1.35439453 13.88568359 1.39628906 15.08386719 1.43945312 16.31835938 C1.56003975 24.97647908 1.56003975 24.97647908 -0.8125 29.3125 C-5.61644782 31.85576649 -9.97067466 31.53464885 -15.3125 31.3125 C-16.33923828 31.28994141 -17.36597656 31.26738281 -18.42382812 31.24414062 C-20.9507179 31.18537575 -23.47460255 31.10327849 -26 31 C-26 30.34 -26 29.68 -26 29 C-15.605 28.505 -15.605 28.505 -5 28 C-5 26.35 -5 24.7 -5 23 C-3.35 23 -1.7 23 0 23 C0 15.41 0 7.82 0 0 Z " fill="#090317" transform="translate(58,55)"/>
<path d="M0 0 C2.64 0 5.28 0 8 0 C8 1.98 8 3.96 8 6 C6.68 6 5.36 6 4 6 C4 7.65 4 9.3 4 11 C-1.61 11 -7.22 11 -13 11 C-13 10.67 -13 10.34 -13 10 C-8.71 10 -4.42 10 0 10 C0 9.01 0 8.02 0 7 C-4.29 7 -8.58 7 -13 7 C-13 6.67 -13 6.34 -13 6 C-8.71 6 -4.42 6 0 6 C0 4.02 0 2.04 0 0 Z " fill="#F48535" transform="translate(83,63)"/>
<path d="M0 0 C1.32 0 2.64 0 4 0 C4 1.32 4 2.64 4 4 C5.32 4 6.64 4 8 4 C8 6.64 8 9.28 8 12 C9.65 12 11.3 12 13 12 C13 12.66 13 13.32 13 14 C10.03 14 7.06 14 4 14 C4 12.68 4 11.36 4 10 C2.68 10 1.36 10 0 10 C0 6.7 0 3.4 0 0 Z " fill="#F15927" transform="translate(191,53)"/>
<path d="M0 0 C0.33 0.66 0.66 1.32 1 2 C3.64 2 6.28 2 9 2 C9 5.63 9 9.26 9 13 C7.68 12.67 6.36 12.34 5 12 C5.99 12 6.98 12 8 12 C8 11.34 8 10.68 8 10 C5.69 10 3.38 10 1 10 C1 10.99 1 11.98 1 13 C-0.65 13 -2.3 13 -4 13 C-2.68 12.67 -1.36 12.34 0 12 C0 8.04 0 4.08 0 0 Z " fill="#E18238" transform="translate(178,61)"/>
<path d="M0 0 C2.97 0 5.94 0 9 0 C9 0.33 9 0.66 9 1 C6.36 1 3.72 1 1 1 C1 2.32 1 3.64 1 5 C2.32 5 3.64 5 5 5 C5 6.32 5 7.64 5 9 C11.93 9 18.86 9 26 9 C24 11 24 11 21.75341797 11.22705078 C20.84221191 11.21657715 19.93100586 11.20610352 18.9921875 11.1953125 C18.00605469 11.18886719 17.01992187 11.18242188 16.00390625 11.17578125 C14.45509766 11.15064453 14.45509766 11.15064453 12.875 11.125 C11.83472656 11.11597656 10.79445313 11.10695313 9.72265625 11.09765625 C7.14820908 11.07403747 4.57421788 11.04110149 2 11 C2 9.68 2 8.36 2 7 C0.68 7 -0.64 7 -2 7 C-2 5.35 -2 3.7 -2 2 C-1.34 2 -0.68 2 0 2 C0 1.34 0 0.68 0 0 Z " fill="#863444" transform="translate(95,73)"/>
<path d="M0 0 C1.32 0 2.64 0 4 0 C4 0.66 4 1.32 4 2 C9.61 2 15.22 2 21 2 C21 2.66 21 3.32 21 4 C19.68 4 18.36 4 17 4 C17 4.66 17 5.32 17 6 C11.39 6 5.78 6 0 6 C0 4.02 0 2.04 0 0 Z " fill="#F18536" transform="translate(100,63)"/>
<path d="M0 0 C8.58 0 17.16 0 26 0 C26 1.65 26 3.3 26 5 C25.34 5 24.68 5 24 5 C24 5.66 24 6.32 24 7 C22.02 7 20.04 7 18 7 C18 12.94 18 18.88 18 25 C20.64 25 23.28 25 26 25 C26 25.33 26 25.66 26 26 C23.03 26 20.06 26 17 26 C17 18.74 17 11.48 17 4 C19.64 4 22.28 4 25 4 C25 3.01 25 2.02 25 1 C16.75 1 8.5 1 0 1 C0 0.67 0 0.34 0 0 Z " fill="#8A3530" transform="translate(127,52)"/>
<path d="M0 0 C0.33 1.32 0.66 2.64 1 4 C3.97 4 6.94 4 10 4 C10 10.93 10 17.86 10 25 C9.01 25 8.02 25 7 25 C7 18.4 7 11.8 7 5 C4.36 5 1.72 5 -1 5 C-0.67 3.35 -0.34 1.7 0 0 Z " fill="#872F4A" transform="translate(126,53)"/>
<path d="M0 0 C0.625 1.875 0.625 1.875 1 4 C-1 6 -1 6 -2.97119141 6.22705078 C-3.75671387 6.21657715 -4.54223633 6.20610352 -5.3515625 6.1953125 C-6.62773437 6.18564453 -6.62773437 6.18564453 -7.9296875 6.17578125 C-9.26386719 6.15064453 -9.26386719 6.15064453 -10.625 6.125 C-11.97078125 6.11146484 -11.97078125 6.11146484 -13.34375 6.09765625 C-15.56276586 6.0740497 -17.78125077 6.0411231 -20 6 C-20 6.99 -20 7.98 -20 9 C-20.66 9 -21.32 9 -22 9 C-22 7.02 -22 5.04 -22 3 C-14.74 2.67 -7.48 2.34 0 2 C0 1.34 0 0.68 0 0 Z " fill="#15031A" transform="translate(222,55)"/>
<path d="M0 0 C0.33 0 0.66 0 1 0 C1 9.57 1 19.14 1 29 C3.97 29 6.94 29 10 29 C8 31 8 31 5.8359375 31.1953125 C5.02382812 31.17210938 4.21171875 31.14890625 3.375 31.125 C2.55773438 31.10695313 1.74046875 31.08890625 0.8984375 31.0703125 C0.27195313 31.04710938 -0.35453125 31.02390625 -1 31 C-1.02465622 26.74585377 -1.04283899 22.49174502 -1.05493164 18.23754883 C-1.05997101 16.78929927 -1.06680253 15.34105483 -1.07543945 13.89282227 C-1.08752247 11.81525412 -1.09323211 9.73775303 -1.09765625 7.66015625 C-1.10289307 6.40855713 -1.10812988 5.15695801 -1.11352539 3.86743164 C-1 1 -1 1 0 0 Z " fill="#811D4A" transform="translate(60,53)"/>
<path d="M0 0 C2.97 0 5.94 0 9 0 C9 4.62 9 9.24 9 14 C7.35 14.33 5.7 14.66 4 15 C4 14.34 4 13.68 4 13 C5.32 13 6.64 13 8 13 C8 11.02 8 9.04 8 7 C5.36 7 2.72 7 0 7 C0 4.69 0 2.38 0 0 Z " fill="#CC502A" transform="translate(83,56)"/>
<path d="M0 0 C8.25 0 16.5 0 25 0 C25 0.99 25 1.98 25 3 C16.75 3 8.5 3 0 3 C0 2.01 0 1.02 0 0 Z " fill="#ED2E26" transform="translate(196,53)"/>
<path d="M0 0 C1.32 0 2.64 0 4 0 C4 0.66 4 1.32 4 2 C5.65 2 7.3 2 9 2 C9 4.97 9 7.94 9 11 C8.67 10.34 8.34 9.68 8 9 C5.36 9 2.72 9 0 9 C0 6.03 0 3.06 0 0 Z " fill="#E0AC1D" transform="translate(117,67)"/>
<path d="M0 0 C8.25 0 16.5 0 25 0 C25 0.99 25 1.98 25 3 C16.60995285 3.13605482 8.35619957 2.75475351 0 2 C0 1.34 0 0.68 0 0 Z " fill="#ED3326" transform="translate(127,53)"/>
<path d="M0 0 C1.65 0 3.3 0 5 0 C5 1.98 5 3.96 5 6 C3.35 6 1.7 6 0 6 C0 6.66 0 7.32 0 8 C-0.99 8 -1.98 8 -3 8 C-3 10.31 -3 12.62 -3 15 C-3.33 15 -3.66 15 -4 15 C-4 10.71 -4 6.42 -4 2 C-2.68 2 -1.36 2 0 2 C0 1.34 0 0.68 0 0 Z " fill="#DE7E37" transform="translate(31,63)"/>
<path d="M0 0 C1.32 0 2.64 0 4 0 C4 0.99 4 1.98 4 3 C5.32 3 6.64 3 8 3 C8 4.98 8 6.96 8 9 C5.36 9 2.72 9 0 9 C0 6.03 0 3.06 0 0 Z " fill="#FCBD1A" transform="translate(136,69)"/>
<path d="M0 0 C1.65 0 3.3 0 5 0 C5 2.97 5 5.94 5 9 C4.67 8.34 4.34 7.68 4 7 C3.01 7 2.02 7 1 7 C1 7.66 1 8.32 1 9 C-0.32 9 -1.64 9 -3 9 C-3 6.69 -3 4.38 -3 2 C-2.01 2 -1.02 2 0 2 C0 1.34 0 0.68 0 0 Z " fill="#F5B71D" transform="translate(31,69)"/>
<path d="M0 0 C2.31 0 4.62 0 7 0 C7 0.66 7 1.32 7 2 C6.01 2 5.02 2 4 2 C4 3.65 4 5.3 4 7 C1.03 7 -1.94 7 -5 7 C-5 5.68 -5 4.36 -5 3 C-3.35 3 -1.7 3 0 3 C0 2.01 0 1.02 0 0 Z " fill="#F0AD1E" transform="translate(179,71)"/>
<path d="M0 0 C3.3 0 6.6 0 10 0 C10 0.99 10 1.98 10 3 C7.69 3 5.38 3 3 3 C3 5.31 3 7.62 3 10 C2.01 10.33 1.02 10.66 0 11 C0 7.37 0 3.74 0 0 Z " fill="#160619" transform="translate(70,58)"/>
<path d="M0 0 C1.32 0 2.64 0 4 0 C4 0.99 4 1.98 4 3 C5.32 3 6.64 3 8 3 C8 4.98 8 6.96 8 9 C6.68 9 5.36 9 4 9 C4 8.34 4 7.68 4 7 C2.68 7 1.36 7 0 7 C0 4.69 0 2.38 0 0 Z " fill="#FABB1B" transform="translate(49,69)"/>
<path d="M0 0 C1.32 0 2.64 0 4 0 C4 2.31 4 4.62 4 7 C2.68 7 1.36 7 0 7 C0 7.66 0 8.32 0 9 C-1.32 9 -2.64 9 -4 9 C-4 7.02 -4 5.04 -4 3 C-2.68 3 -1.36 3 0 3 C0 2.01 0 1.02 0 0 Z " fill="#FABC1C" transform="translate(161,69)"/>
<path d="M0 0 C1.32 0 2.64 0 4 0 C4 0.66 4 1.32 4 2 C5.32 2 6.64 2 8 2 C8 4.31 8 6.62 8 9 C6.68 9 5.36 9 4 9 C4 8.01 4 7.02 4 6 C2.68 6 1.36 6 0 6 C0 4.02 0 2.04 0 0 Z " fill="#F58733" transform="translate(136,63)"/>
<path d="M0 0 C1.32 0 2.64 0 4 0 C4 0.66 4 1.32 4 2 C5.32 2 6.64 2 8 2 C8 4.31 8 6.62 8 9 C6.68 9 5.36 9 4 9 C4 8.01 4 7.02 4 6 C2.68 6 1.36 6 0 6 C0 4.02 0 2.04 0 0 Z " fill="#F58733" transform="translate(49,63)"/>
<path d="M0 0 C5.28 0 10.56 0 16 0 C16 0.99 16 1.98 16 3 C8.08 3.495 8.08 3.495 0 4 C0 2.68 0 1.36 0 0 Z " fill="#EE3026" transform="translate(100,53)"/>
<path d="M0 0 C2.64 0 5.28 0 8 0 C8 1.98 8 3.96 8 6 C5.36 6 2.72 6 0 6 C0 4.02 0 2.04 0 0 Z " fill="#EFE311" transform="translate(62,76)"/>
<path d="M0 0 C2.64 0 5.28 0 8 0 C8 1.65 8 3.3 8 5 C6.68 5 5.36 5 4 5 C4 5.66 4 6.32 4 7 C2.68 7 1.36 7 0 7 C0 4.69 0 2.38 0 0 Z " fill="#FABB1D" transform="translate(191,71)"/>
<path d="M0 0 C2.64 0 5.28 0 8 0 C8 1.98 8 3.96 8 6 C5.36 6 2.72 6 0 6 C0 4.02 0 2.04 0 0 Z " fill="#F48535" transform="translate(62,63)"/>
<path d="M0 0 C1.65 0 3.3 0 5 0 C5 1.32 5 2.64 5 4 C7.97 4 10.94 4 14 4 C14 3.34 14 2.68 14 2 C14.99 2 15.98 2 17 2 C17.33 1.34 17.66 0.68 18 0 C18 1.65 18 3.3 18 5 C12.06 5 6.12 5 0 5 C0 3.35 0 1.7 0 0 Z " fill="#070614" transform="translate(105,59)"/>
<path d="M0 0 C1.32 0 2.64 0 4 0 C4 0.66 4 1.32 4 2 C5.32 2 6.64 2 8 2 C8 3.32 8 4.64 8 6 C6.68 6 5.36 6 4 6 C4 6.66 4 7.32 4 8 C2.68 8 1.36 8 0 8 C0 5.36 0 2.72 0 0 Z " fill="#EF5B29" transform="translate(157,55)"/>
<path d="M0 0 C5.61 0 11.22 0 17 0 C17 1.65 17 3.3 17 5 C11.39 5 5.78 5 0 5 C0 4.67 0 4.34 0 4 C4.29 4 8.58 4 13 4 C13 3.01 13 2.02 13 1 C8.71 1 4.42 1 0 1 C0 0.67 0 0.34 0 0 Z " fill="#DBA42B" transform="translate(70,69)"/>
<path d="M0 0 C4.29 0 8.58 0 13 0 C13 3.96 13 7.92 13 12 C12.01 12 11.02 12 10 12 C10 8.37 10 4.74 10 1 C6.7 1 3.4 1 0 1 C0 0.67 0 0.34 0 0 Z " fill="#82254B" transform="translate(70,57)"/>
<path d="M0 0 C2.64 0 5.28 0 8 0 C8 1.32 8 2.64 8 4 C9.32 4 10.64 4 12 4 C12 7.96 12 11.92 12 16 C11.34 16 10.68 16 10 16 C10 12.7 10 9.4 10 6 C8.68 6 7.36 6 6 6 C6 4.35 6 2.7 6 1 C4.02 1 2.04 1 0 1 C0 0.67 0 0.34 0 0 Z " fill="#851E50" transform="translate(166,57)"/>
<path d="M0 0 C1.65 0 3.3 0 5 0 C5 0.66 5 1.32 5 2 C4.01 2 3.02 2 2 2 C2 7.28 2 12.56 2 18 C1.34 18 0.68 18 0 18 C0 12.06 0 6.12 0 0 Z " fill="#030314" transform="translate(166,59)"/>
<path d="M0 0 C0.33 0 0.66 0 1 0 C1 1.65 1 3.3 1 5 C-1.31 5.66 -3.62 6.32 -6 7 C-6.33 11.95 -6.66 16.9 -7 22 C-7.33 22 -7.66 22 -8 22 C-8 16.06 -8 10.12 -8 4 C-6.02 4 -4.04 4 -2 4 C-2 3.34 -2 2.68 -2 2 C-1.34 2 -0.68 2 0 2 C0 1.34 0 0.68 0 0 Z " fill="#020215" transform="translate(153,55)"/>
<path d="M0 0 C1.32 0 2.64 0 4 0 C4 0.66 4 1.32 4 2 C5.32 2 6.64 2 8 2 C8 2.99 8 3.98 8 5 C4.37 5 0.74 5 -3 5 C-3 4.01 -3 3.02 -3 2 C-2.01 2 -1.02 2 0 2 C0 1.34 0 0.68 0 0 Z " fill="#F1E50E" transform="translate(161,76)"/>
<path d="M0 0 C0 2.31 0 4.62 0 7 C2.64 7 5.28 7 8 7 C8 7.66 8 8.32 8 9 C5.03 9 2.06 9 -1 9 C-1 7.68 -1 6.36 -1 5 C-2.32 5 -3.64 5 -5 5 C-5 3.68 -5 2.36 -5 1 C-1.125 0 -1.125 0 0 0 Z " fill="#EE5D2A" transform="translate(196,58)"/>
<path d="M0 0 C0 1.98 0 3.96 0 6 C-1.32 6 -2.64 6 -4 6 C-4 6.66 -4 7.32 -4 8 C-4.99 8 -5.98 8 -7 8 C-7 6.02 -7 4.04 -7 2 C-4.35261084 0.5393715 -3.10551666 0 0 0 Z " fill="#F15A27" transform="translate(35,57)"/>
<path d="M0 0 C2.64 0 5.28 0 8 0 C8 1.98 8 3.96 8 6 C6.68 6 5.36 6 4 6 C4 5.34 4 4.68 4 4 C2.68 4 1.36 4 0 4 C0 2.68 0 1.36 0 0 Z " fill="#EE3427" transform="translate(49,53)"/>
<path d="M0 0 C4.29 0 8.58 0 13 0 C13 0.99 13 1.98 13 3 C8.71 3 4.42 3 0 3 C0 2.01 0 1.02 0 0 Z " fill="#EE2F26" transform="translate(62,53)"/>
<path d="M0 0 C1.32 0 2.64 0 4 0 C4.33 2.64 4.66 5.28 5 8 C3.35 8 1.7 8 0 8 C0 5.36 0 2.72 0 0 Z " fill="#F38535" transform="translate(191,63)"/>
<path d="M0 0 C2.97 0 5.94 0 9 0 C9 1.32 9 2.64 9 4 C10.98 4 12.96 4 15 4 C15 4.66 15 5.32 15 6 C12.03 6 9.06 6 6 6 C6 4.35 6 2.7 6 1 C4.02 1 2.04 1 0 1 C0 0.67 0 0.34 0 0 Z " fill="#8C1C49" transform="translate(104,57)"/>
<path d="M0 0 C1.32 0.33 2.64 0.66 4 1 C3.01 1 2.02 1 1 1 C1 2.65 1 4.3 1 6 C3.31 6 5.62 6 8 6 C8 6.99 8 7.98 8 9 C5.36 9 2.72 9 0 9 C0 6.03 0 3.06 0 0 Z " fill="#FBBE1F" transform="translate(117,67)"/>
<path d="M0 0 C2.64 0 5.28 0 8 0 C8 1.32 8 2.64 8 4 C5.36 4 2.72 4 0 4 C0 2.68 0 1.36 0 0 Z " fill="#F9BD1B" transform="translate(96,74)"/>
<path d="M0 0 C2.64 0 5.28 0 8 0 C8 0.66 8 1.32 8 2 C9.65 2 11.3 2 13 2 C13 2.66 13 3.32 13 4 C10.36 4 7.72 4 5 4 C5 3.34 5 2.68 5 2 C3.35 2 1.7 2 0 2 C0 1.34 0 0.68 0 0 Z " fill="#EB5928" transform="translate(174,59)"/>
<path d="M0 0 C2.64 0 5.28 0 8 0 C8 0.99 8 1.98 8 3 C5.36 3 2.72 3 0 3 C0 2.01 0 1.02 0 0 Z " fill="#F1E40E" transform="translate(100,78)"/>
<path d="M0 0 C1.32 0 2.64 0 4 0 C4 0.66 4 1.32 4 2 C5.32 2 6.64 2 8 2 C8 2.66 8 3.32 8 4 C5.36 4 2.72 4 0 4 C0 2.68 0 1.36 0 0 Z " fill="#F6BB19" transform="translate(174,74)"/>
<path d="M0 0 C1.32 0 2.64 0 4 0 C4 1.32 4 2.64 4 4 C1.36 4 -1.28 4 -4 4 C-4 3.34 -4 2.68 -4 2 C-2.68 2 -1.36 2 0 2 C0 1.34 0 0.68 0 0 Z " fill="#EB5929" transform="translate(117,57)"/>
<path d="M0 0 C1.32 0 2.64 0 4 0 C4 1.98 4 3.96 4 6 C2.68 6 1.36 6 0 6 C0 4.02 0 2.04 0 0 Z " fill="#EC3428" transform="translate(191,53)"/>
<path d="M0 0 C2.31 0 4.62 0 7 0 C7 0.99 7 1.98 7 3 C4.69 3 2.38 3 0 3 C0 2.01 0 1.02 0 0 Z " fill="#F58532" transform="translate(179,68)"/>
<path d="M0 0 C0 0.66 0 1.32 0 2 C-1.32 2 -2.64 2 -4 2 C-4 2.66 -4 3.32 -4 4 C-4.99 4 -5.98 4 -7 4 C-7 3.01 -7 2.02 -7 1 C-4 0 -4 0 0 0 Z " fill="#F58634" transform="translate(35,67)"/>
</svg>
